<?xml version="1.0" encoding="utf-8"?>
<!-- Generator: Adobe Illustrator 23.0.5, SVG Export Plug-In . SVG Version: 6.00 Build 0)  -->
<svg version="1.1" id="Слой_1" xmlns="http://www.w3.org/2000/svg" xmlns:xlink="http://www.w3.org/1999/xlink" x="0px" y="0px"
	 viewBox="0 0 192 192" style="enable-background:new 0 0 192 192;" xml:space="preserve">
<style type="text/css">
	.st0{fill:#FEFEFE;}
	.st1{fill:#F75233;}
	.st2{fill:#85858D;}
	.st3{fill:#FB7F6B;}
</style>
<path class="st0" d="M0.17,96.17c0-31.75,0-63.5-0.02-95.25c0-0.63,0.14-0.77,0.77-0.77c63.5,0.02,127,0.02,190.5,0
	c0.63,0,0.77,0.14,0.77,0.77c-0.02,63.5-0.02,127,0,190.5c0,0.63-0.14,0.77-0.77,0.77c-63.5-0.02-127-0.02-190.5,0
	c-0.63,0-0.77-0.14-0.77-0.77C0.17,159.67,0.17,127.92,0.17,96.17z"/>
<path class="st1" d="M115.82,75.66c0.29,1.1,0.56,2.08,0.81,3.07c1.21,4.66-2.07,9.06-6.76,9.06c-3.19,0-6.01-2.11-6.85-5.22
	c-2.1-7.79-4.2-15.59-6.25-23.39c-1.29-4.91,1.03-8.93,5.92-10.27c7.76-2.12,15.54-4.2,23.31-6.27c3.82-1.02,7.67,1.2,8.68,4.93
	c1.03,3.79-1.09,7.55-4.9,8.69c-1.05,0.31-2.12,0.59-3.18,0.88c0.08,0.31,0.33,0.35,0.51,0.45c16.88,9.75,33.77,19.49,50.64,29.25
	c1.34,0.78,2.76,1.45,3.98,2.42c4.23,3.35,3.79,10.02-0.87,12.74c-6.67,3.89-13.36,7.73-20.05,11.59
	c-12.87,7.43-25.74,14.85-38.6,22.28c-0.19,0.11-0.39,0.21-0.6,0.32c2.06-9.81-3.28-16.11-10.63-18.31c0.52-0.31,0.96-0.58,1.4-0.83
	c11.57-6.68,23.14-13.36,34.7-20.04c1.65-0.95,1.65-2.41,0.01-3.36c-10.22-5.9-20.44-11.8-30.67-17.7
	C116.28,75.87,116.1,75.8,115.82,75.66z"/>
<path class="st2" d="M51.66,77.66c0.73-0.79,1.42-1.63,2.21-2.37c2.22-2.09,4.82-2.62,7.62-1.48c2.74,1.12,4.22,3.31,4.39,6.26
	c0.12,2.03-0.63,3.82-2.08,5.27c-3.26,3.27-6.58,6.48-9.78,9.82c-2.34,2.45-4.73,4.85-7.13,7.25c-1.91,1.91-4.13,3.1-6.93,2.79
	c-2.02-0.23-3.68-1.21-5.1-2.6c-1.93-1.88-3.89-3.75-5.72-5.73c-3.71-3.99-7.69-7.71-11.48-11.63c-3.52-3.64-2.2-9.69,2.53-11.48
	c2.73-1.03,5.25-0.55,7.41,1.47c0.82,0.77,1.58,1.62,2.4,2.48c0.28-0.45,0.18-0.79,0.18-1.11c0.01-20.5,0-41.01,0.01-61.51
	c0-3.83,2.34-6.8,6.03-7.66c2.05-0.48,3.94-0.04,5.75,1.01c8,4.64,16.01,9.26,24.02,13.89c11.35,6.55,22.71,13.11,34.06,19.66
	c0.24,0.14,0.47,0.29,0.76,0.47c-8.67,3.15-12.26,9.18-10.58,18.36c-1.51-0.87-2.97-1.71-4.42-2.54
	c-10.61-6.13-21.22-12.24-31.81-18.4c-1.27-0.74-2.64-0.01-2.63,1.47c0.05,11.91,0.03,23.81,0.03,35.72c0,0.14,0.01,0.27,0.02,0.41
	C51.5,77.54,51.58,77.6,51.66,77.66z"/>
<path class="st3" d="M30.2,107.39c6.17,5.7,14.53,6.23,21.22-0.01c0,0.41,0,0.72,0,1.04c-0.01,13.6,0,27.21-0.04,40.81
	c0,1.25,0.88,2.02,1.79,1.87c0.29-0.05,0.52-0.18,0.76-0.31c10.37-5.98,20.74-11.97,31.11-17.96c0.07-0.04,0.13-0.1,0.25-0.21
	c-0.88-0.42-1.8-0.55-2.68-0.79c-2.9-0.78-4.84-2.54-5.52-5.51c-1.14-4.93,3.51-9.57,8.41-8.33c5.56,1.41,11.09,2.94,16.64,4.42
	c2.25,0.6,4.5,1.19,6.75,1.81c3.24,0.9,5.69,2.65,6.39,6.16c0.31,1.58,0.14,3.15-0.27,4.7c-2.01,7.5-4.01,15-6.02,22.5
	c-1,3.72-3.77,5.74-7.56,5.55c-4.06-0.21-7.23-4.39-6.33-8.36c0.27-1.21,0.61-2.4,0.96-3.78c-1.5,0.86-2.84,1.63-4.17,2.4
	c-16.36,9.45-32.72,18.89-49.07,28.34c-1.33,0.77-2.65,1.45-4.22,1.65c-4.06,0.52-8.21-2.92-8.36-7.01
	c-0.01-0.36-0.02-0.72-0.02-1.08c0-22.31,0-44.63,0-66.94C30.2,108.08,30.2,107.81,30.2,107.39z"/>
</svg>
